<svg xmlns="http://www.w3.org/2000/svg" width="91" height="80" viewBox="0 0 91 80"><g fill="none" fill-rule="evenodd"><path fill="#78878C" d="M65.789 78.645L2.703 45.685c-1.542-.807-2.148-2.729-1.354-4.293l19.63-38.664c.795-1.565 2.69-2.18 4.232-1.373l63.085 32.96c1.543.806 2.15 2.728 1.354 4.293L70.02 77.27a3.12 3.12 0 0 1-4.231 1.374"/><path stroke="#647C85" stroke-width="2" d="M65.789 78.645L2.703 45.685c-1.542-.807-2.148-2.729-1.354-4.293l19.63-38.664c.795-1.565 2.69-2.18 4.232-1.373l63.085 32.96c1.543.806 2.15 2.728 1.354 4.293L70.02 77.27a3.12 3.12 0 0 1-4.231 1.374z"/><path fill="#000" d="M45.975 35.287a.363.363 0 0 0-.145-.1c-.354-.16-.858-.218-1.51-.172L42 39c.588-.023 1.304-.41 2.146-1.162.725-.649 1.27-1.289 1.639-1.92.193-.33.256-.541.19-.631m.388 2.956c-.387.713-1.012 1.388-1.875 2.026-.692.516-1.444.95-2.258 1.308-.713.297-1.196.437-1.45.422a1.12 1.12 0 0 1-.384-.113c-.303-.148-.6-.409-.886-.78-.264-.32-.434-.608-.51-.869l3.842-7.061c.113-.16.272-.21.476-.153.024.004.184.111.48.321.06.037.302.069.729.095.427.026.765.1 1.013.22.305.15.553.366.748.65.109.17.251.462.427.879.256.605.34 1.15.25 1.636-.063.325-.264.798-.602 1.42m3.743 6.48a.73.73 0 0 1-.408.295c-.419.309-.945.567-1.58.777-.684.22-1.163.262-1.438.127a.638.638 0 0 1-.107-.066c-.253-.24-.532-.52-.835-.843-.532-.591-.777-1.345-.733-2.259.044-.821.306-1.674.783-2.556.584-1.079 1.315-1.925 2.194-2.536.934-.65 1.756-.823 2.468-.515.275.119.597.442.968.971.37.529.563.97.58 1.321.02.353-.189 1.002-.622 1.947a1.78 1.78 0 0 1-.406.558c-.213.202-.38.26-.5.177a6.391 6.391 0 0 1-.79-.66c-.365-.353-.54-.583-.524-.692a.244.244 0 0 1 .026-.098.522.522 0 0 1 .208-.178.526.526 0 0 0 .206-.178c.18-.251.334-.494.46-.73.185-.34.27-.595.258-.767-.567.086-1.14.413-1.716.983-.488.48-.925 1.08-1.314 1.8a7.405 7.405 0 0 0-.65 1.562c-.132.485-.15.81-.056.971.048.073.31.035.787-.116.477-.15.81-.297.998-.435.01-.003.098-.093.263-.27.104-.097.199-.141.282-.134.137.018.388.259.75.722.362.463.51.737.448.821"/><path stroke="#647C85" stroke-width="4" d="M59.546 46.69c-3.703 7.294-13.55 10.481-20.741 6.724-7.19-3.755-9.842-13.47-6.138-20.764 3.704-7.292 12.48-9.636 19.67-5.88 7.191 3.755 10.912 12.628 7.21 19.92z" stroke-dasharray="9.509 9.509"/><path fill="#F5F5F5" d="M10.131 64C8.401 64 7 62.587 7 60.842V19.158C7 17.413 8.402 16 10.131 16H80.87C82.599 16 84 17.413 84 19.158v41.684C84 62.587 82.598 64 80.869 64H10.13z"/><path stroke="#647C85" stroke-width="2" d="M80.869 64H10.13C8.401 64 7 62.587 7 60.842V19.158C7 17.413 8.402 16 10.131 16H80.87C82.599 16 84 17.413 84 19.158v41.684C84 62.587 82.598 64 80.869 64z"/><path stroke="#647C85" stroke-width="2" d="M13 33h12m6 0h12M13 47h12m6 0h12" stroke-linecap="round"/><path stroke="#EBB200" stroke-width="2" d="M13 54h1" stroke-linecap="round"/><path stroke="#F08481" stroke-width="2" d="M20 54h3" stroke-linecap="round"/><path stroke="#7DDEB1" stroke-width="2" d="M28 54h1" stroke-linecap="round"/><path stroke="#5BABDC" stroke-width="2" d="M35 54h3" stroke-linecap="round"/><path stroke="#647C85" stroke-width="2" d="M13 26h12m6 0h12M13 40h12m6 0h12" stroke-linecap="round"/><g transform="translate(51 25)"><ellipse cx="14" cy="14" stroke="#647C85" stroke-width="2" stroke-dasharray="4" rx="14" ry="14"/><g fill="#647C85"><path d="M23.994 11.87a.226.226 0 0 0-.249-.17c-1.885.239-5.07.374-5.59-.285-1.196-1.514-.281-6.104-.272-6.15a.221.221 0 0 0-.163-.257.227.227 0 0 0-.272.142c-.013.038-1.347 3.812-4.148 4.699C10.766 10.65 7.208 8 7.173 7.973a.229.229 0 0 0-.314.038.218.218 0 0 0 .032.308c.029.023 2.807 2.31 2.927 4.324-.34 1.056-3.473 2.286-4.664 2.674a.22.22 0 0 0-.144.277c.038.115.162.18.28.145.04-.012 4.11-1.171 5.794.914.787.974-.415 3.96-.945 5.029a.22.22 0 0 0 .093.29.227.227 0 0 0 .3-.075c.772-1.192 3.062-4.315 4.372-4.442 2.251-.219 4.594 2.948 4.618 2.98.071.098.21.122.31.054a.219.219 0 0 0 .062-.303c-.705-1.061-2.395-4.06-1.768-5.174.597-1.061 4.33-2.441 5.718-2.883a.22.22 0 0 0 .15-.26"/><path d="M21.317 8.242a1.5 1.5 0 1 1-1.633 2.516 1.5 1.5 0 0 1 1.633-2.516m-13.773 2.92c.464.3.596.92.294 1.382a.999.999 0 1 1-.293-1.382m2 6a1 1 0 1 1-1.088 1.676 1 1 0 0 1 1.087-1.677m6.772 2.08a1.5 1.5 0 1 1-1.632 2.517 1.5 1.5 0 0 1 1.632-2.516m5-4a1.5 1.5 0 1 1-1.632 2.515 1.5 1.5 0 0 1 1.633-2.515m-8.001-9a1.498 1.498 0 1 1-1.632 2.516 1.5 1.5 0 1 1 1.632-2.516"/></g></g></g></svg>