<svg xmlns="http://www.w3.org/2000/svg" width="87" height="80" viewBox="0 0 87 80"><g fill="none" fill-rule="evenodd"><path fill="#F5F5F5" d="M30 72.617L1 79V10.383L30 4z"/><path stroke="#647C85" stroke-width="2" stroke-linecap="round" stroke-linejoin="round" d="M30 72.617L1 79V10.383L30 4z"/><path fill="#F5F5F5" d="M86 65.917L57 77V10.5L86 1z"/><path stroke="#647C85" stroke-width="2" stroke-linecap="round" stroke-linejoin="round" d="M86 65.917L57 77V10.5L86 1z"/><path fill="#78878C" d="M57 77l-27-4.76V4l27 6.348z"/><path stroke="#647C85" stroke-width="2" stroke-linecap="round" stroke-linejoin="round" d="M57 77l-27-4.76V4l27 6.348z"/><path stroke="#647C85" stroke-width="2" d="M17.5 51.712c6.351 0 9.5-7.084 9.5-13.356S23.851 29 17.5 29 5 34.084 5 40.356s6.149 11.357 12.5 11.357z" stroke-dasharray="4"/><g fill="#647C85"><path d="M24.556 38.925a.186.186 0 0 0-.203-.144c-1.545.203-4.153.316-4.58-.24-.979-1.275-.23-5.145-.222-5.184a.185.185 0 0 0-.356-.096c-.01.032-1.103 3.213-3.397 3.96-2.076.677-4.99-1.558-5.018-1.58a.184.184 0 0 0-.257.031.188.188 0 0 0 .026.26c.023.02 2.299 1.947 2.397 3.645-.279.89-2.845 1.927-3.82 2.254a.187.187 0 0 0-.117.233c.03.098.132.152.228.123.034-.01 3.366-.987 4.746.77.644.821-.34 3.34-.774 4.24a.188.188 0 0 0 .076.244.184.184 0 0 0 .246-.063c.632-1.005 2.508-3.637 3.58-3.744 1.844-.185 3.763 2.485 3.782 2.512a.183.183 0 0 0 .255.045.188.188 0 0 0 .05-.255c-.577-.895-1.962-3.422-1.448-4.362.49-.895 3.547-2.058 4.683-2.43a.187.187 0 0 0 .123-.219"/><path d="M22.224 35.731c.631.415.811 1.267.4 1.905a1.355 1.355 0 0 1-1.885.405 1.385 1.385 0 0 1-.4-1.904 1.354 1.354 0 0 1 1.885-.406m-10.756 2.651c.467.305.6.936.296 1.407a.999.999 0 0 1-1.393.3 1.022 1.022 0 0 1-.296-1.408 1 1 0 0 1 1.393-.299m1.156 4.723c.46.3.59.92.292 1.385a.985.985 0 0 1-1.372.294 1.007 1.007 0 0 1-.291-1.384.985.985 0 0 1 1.371-.295m5.406 1.878c.517.34.664 1.037.328 1.559a1.108 1.108 0 0 1-1.542.331 1.133 1.133 0 0 1-.329-1.558 1.108 1.108 0 0 1 1.543-.332m4.264-3.666c.55.36.705 1.1.349 1.654a1.177 1.177 0 0 1-1.638.352 1.203 1.203 0 0 1-.35-1.654 1.178 1.178 0 0 1 1.64-.352m-6.096-7.3c.632.414.811 1.267.401 1.905-.41.638-1.254.819-1.885.405a1.385 1.385 0 0 1-.401-1.905 1.354 1.354 0 0 1 1.885-.405"/></g></g></svg>