<svg xmlns="http://www.w3.org/2000/svg" width="76" height="74" viewBox="0 0 76 74" xmlns:xlink="http://www.w3.org/1999/xlink"><defs><path id="a" d="M37.679 76.025c5.135 0 9.873-1.203 14.339-3.027 4.63-1.89 9.288-3.951 12.777-7.386 3.489-3.436 5.548-8.037 7.468-12.596C74.113 48.618 76 43.968 76 38.91c0-5.058-1.237-9.973-3.09-14.37-1.92-4.56-5.119-8.41-8.608-11.847-3.489-3.435-7.417-6.548-12.045-8.438-4.467-1.824-9.443-2.281-14.578-2.281-5.136 0-10.023.671-14.488 2.494-4.63 1.89-8.71 4.729-12.199 8.164-3.488 3.436-6.284 7.488-8.205 12.047C.937 29.077 0 33.853 0 38.91c0 5.058.57 9.983 2.421 14.381 1.92 4.559 4.92 8.622 8.41 12.057 3.488 3.436 7.712 6.159 12.34 8.05 4.467 1.823 9.372 2.627 14.508 2.627z"/><mask id="b" width="76" height="74.051" x="0" y="0" fill="#fff"><use xlink:href="#a"/></mask></defs><g fill="none" fill-rule="evenodd" transform="translate(0 -2)"><use stroke="#647C85" stroke-width="6" mask="url(#b)" stroke-dasharray="10" xlink:href="#a"/><g fill="#647C85"><path d="M63.24 33.705c-5.026.655-13.518 1.024-14.907-.777-3.189-4.136-.749-16.679-.724-16.805a.602.602 0 0 0-1.16-.312c-.034.103-3.592 10.415-11.06 12.838-6.758 2.193-16.243-5.05-16.338-5.124a.6.6 0 0 0-.836.102.606.606 0 0 0 .085.842c.076.063 7.484 6.312 7.805 11.815-.909 2.887-9.262 6.247-12.436 7.307a.605.605 0 0 0 .361 1.153c.11-.033 10.958-3.201 15.45 2.497 2.097 2.661-1.107 10.822-2.519 13.741a.607.607 0 0 0 .54.87.6.6 0 0 0 .509-.281c2.057-3.258 8.163-11.79 11.657-12.137 6.002-.6 12.25 8.055 12.312 8.142.19.267.558.332.827.147a.607.607 0 0 0 .165-.829c-1.879-2.899-6.387-11.09-4.715-14.136 1.593-2.901 11.547-6.67 15.248-7.879a.605.605 0 0 0-.263-1.174z"/><path d="M56.31 23.819a4.478 4.478 0 0 1 1.306 6.174 4.424 4.424 0 0 1-6.138 1.313 4.478 4.478 0 0 1-1.307-6.173 4.421 4.421 0 0 1 6.14-1.314M21.292 32.41a3.302 3.302 0 0 1 .963 4.56 3.26 3.26 0 0 1-4.533.97 3.305 3.305 0 0 1-.963-4.56 3.264 3.264 0 0 1 4.533-.97m3.764 15.307a3.256 3.256 0 0 1 .95 4.49 3.215 3.215 0 0 1-4.466.955 3.255 3.255 0 0 1-.949-4.489 3.215 3.215 0 0 1 4.465-.956m17.6 6.088a3.663 3.663 0 0 1 1.068 5.053 3.616 3.616 0 0 1-5.021 1.073 3.662 3.662 0 0 1-1.069-5.05 3.618 3.618 0 0 1 5.022-1.076M56.54 41.924a3.888 3.888 0 0 1 1.134 5.361 3.842 3.842 0 0 1-5.333 1.142 3.89 3.89 0 0 1-1.136-5.362 3.845 3.845 0 0 1 5.335-1.141m-19.846-23.66a4.474 4.474 0 0 1 1.307 6.172 4.422 4.422 0 0 1-6.137 1.314 4.476 4.476 0 0 1-1.306-6.174 4.419 4.419 0 0 1 6.136-1.312"/></g></g></svg>