<svg xmlns="http://www.w3.org/2000/svg" width="42" height="61" viewBox="0 0 42 61"><path d="M19 46c-3.925 0-7 3.048-7 6.94v.12c0 3.892 3.075 6.94 7 6.94s7-3.048 7-6.94v-.12c0-3.892-3.075-6.94-7-6.94zm1.703-45C14.17 1 8.473 2.976 3.766 6.875 2.01 8.338 1 10.445 1 12.659c0 4.07 3.444 7.507 7.521 7.507 1.632 0 3.314-.586 4.737-1.65 2.278-1.707 4.574-2.502 7.222-2.502 2.994 0 4.512.992 4.512 2.946v.149c0 .962 0 3.217-7.399 4.151-1.812.226-3.352 1.065-4.335 2.362-.986 1.3-1.362 2.936-1.092 4.723l.744 5.044C13.392 38.64 16.045 41 19.217 41h.594c3.087 0 5.692-2.255 6.267-5.364C35.982 33.206 41 27.553 41 18.813v-.148C41 7.934 33.033 1 20.703 1z" fill="#F5F5F5" fill-rule="evenodd" stroke="#647C85" stroke-width="2"/></svg>