<svg xmlns="http://www.w3.org/2000/svg" width="77" height="92" viewBox="0 0 77 92"><g fill="none" fill-rule="evenodd"><path fill="#D0E8F9" d="M68.56 57.98c0-1.49 1.382-2.699 2.465-2.699v.12c0-1.989-1.25-3.48-3.18-3.48h-6.997c-1.93 0-3.896 1.491-3.896 3.48v-.06c2.165 0 2.822 1.178 2.822 2.67 0 1.49-1.073 2.684-2.523 2.684l7.045 8.99 6.942-9.002c-1.45 0-2.678-1.212-2.678-2.703z"/><path stroke="#647C85" stroke-width="2" d="M68.56 57.98c0-1.49 1.382-2.699 2.465-2.699v.12c0-1.989-1.25-3.48-3.18-3.48h-6.997c-1.93 0-3.896 1.491-3.896 3.48v-.06c2.165 0 2.822 1.178 2.822 2.67 0 1.49-1.073 2.684-2.523 2.684l7.045 8.99 6.942-9.002c-1.45 0-2.678-1.212-2.678-2.703z" stroke-linejoin="round"/><path stroke="#647C85" stroke-width="2" stroke-linejoin="round" d="M62.905 60.639l1.485-1.613h1.36l1.917 1.613v1.353l-1.917 1.771h-1.36l-1.485-1.771zM64.095 69.684l.007-7.105"/><path fill="#5BAADC" d="M60.524 48.368h8.333V5.737h-8.333z"/><path stroke="#647C85" stroke-width="2" stroke-linejoin="round" d="M60.524 48.368h8.333V5.737h-8.333z"/><path fill="#EBB200" d="M61.714 5.737h5.953V1h-5.953z"/><path stroke="#647C85" stroke-width="2" stroke-linejoin="round" d="M61.714 5.737h5.953V1h-5.953z"/><path stroke="#647C85" stroke-width="2" stroke-linecap="round" stroke-linejoin="round" d="M56.952 21.132V9.289h3.572M60.524 21.132h8.333m-8.333 4.736h3.571m-3.571 3.553h2.38"/><path fill="#FFF" d="M60.524 51.921h7.143v-4.737H60.97v4.485s-.45.252-.446.252"/><path stroke="#647C85" stroke-width="2" d="M60.524 51.921h7.143v-4.737H60.97v4.485s-.45.252-.446.252z" stroke-linejoin="round"/><path fill="#F5F5F5" d="M1 79.158h50V16.395H1z"/><path stroke="#647C85" stroke-width="2" stroke-linecap="round" d="M1 79.158h50V16.395H1z"/><path fill="#78878C" d="M40.227 31.744H11.772c-.066.073-.13.047-.177 0L1.075 16.822a.25.25 0 0 1 .177-.427h49.495a.25.25 0 0 1 .179.427L40.404 31.744c-.046.047-.11.073-.177 0"/><path stroke="#647C85" stroke-width="2" d="M40.227 31.744H11.772c-.066.073-.13.047-.177 0L1.075 16.822a.25.25 0 0 1 .177-.427h49.495a.25.25 0 0 1 .179.427L40.404 31.744c-.046.047-.11.073-.177 0z" stroke-linecap="round"/><path fill="#77878B" d="M40.227 70.911H11.772c-.066-.069-.13-.044-.177 0l-10.52 7.845c-.16.148-.047.402.177.402h49.495c.225 0 .337-.254.179-.402L40.404 70.91c-.046-.044-.11-.069-.177 0"/><path stroke="#647C85" stroke-width="2" d="M40.227 70.911H11.772c-.066-.069-.13-.044-.177 0l-10.52 7.845c-.16.148-.047.402.177.402h49.495c.225 0 .337-.254.179-.402L40.404 70.91c-.046-.044-.11-.069-.177 0zM26 31.79v39.08" stroke-linecap="round"/><path fill="#F5F5F5" d="M12.905 46v45H76V46z"/><path stroke="#647C85" stroke-width="2" stroke-linecap="round" d="M12.905 46v45H76V46z"/><path fill="#F5F5F5" d="M76 89.128V47.872a.689.689 0 0 0-1.106-.546L53.38 69.036l21.513 20.638A.689.689 0 0 0 76 89.128"/><path stroke="#647C85" stroke-width="2" d="M76 47.872a.689.689 0 0 0-1.106-.546L53.38 69.036l21.513 20.638A.689.689 0 0 0 76 89.128V47.872z" stroke-linecap="round"/><path fill="#F5F5F5" d="M12.905 46.001l29.523 29.984a2.948 2.948 0 0 0 4.05 0L76 46"/><path stroke="#647C85" stroke-width="2" d="M12.905 46.001l29.523 29.984a2.948 2.948 0 0 0 4.05 0L76 46" stroke-linecap="round"/><g><path fill="#F5F5F5" d="M12.905 89.129V47.872c0-.568.653-.89 1.106-.545l21.513 21.71-21.513 20.637a.689.689 0 0 1-1.106-.545"/><path stroke="#647C85" stroke-width="2" d="M12.905 89.129V47.872c0-.568.653-.89 1.106-.545l21.513 21.71-21.513 20.637a.689.689 0 0 1-1.106-.545z" stroke-linecap="round"/><path fill="#78878C" d="M74.81 46l-3.942-14.105-.03-.105-54.255 13.94c-.162.042-.13.27.037.27h58.19z"/><path stroke="#647C85" stroke-width="2" d="M74.81 46l-3.942-14.105-.03-.105-54.255 13.94c-.162.042-.13.27.037.27h58.19z" stroke-linecap="round"/><path fill="#F08481" d="M66.476 47.185l-1.417-5.921-8.106 2.431.835 3.49z"/><path stroke="#647C85" stroke-width="2" stroke-linecap="round" d="M66.476 46.001l-1.417-5.922-8.106 2.432.835 3.49z"/><path fill="#78878C" d="M16.675 45.732l31.944-8.02H16.476V46h.237c-.17 0-.202-.227-.038-.269"/><path stroke="#647C85" stroke-width="2" d="M16.675 45.732l31.944-8.02H16.476V46h.237c-.17 0-.202-.227-.038-.269z" stroke-linecap="round"/><path fill="#78878C" stroke="#647C85" stroke-width="2" d="M52.19 70.768c0 4.17-4.054 8.39-8.045 8.39-3.993 0-7.43-4.22-7.43-8.39 0-4.17 3.437-7.004 7.43-7.004 3.99 0 8.046 2.834 8.046 7.004z"/><g fill="#FFF"><path d="M50.637 69.626a.152.152 0 0 0-.167-.114c-1.263.16-3.398.25-3.747-.19-.802-1.006-.189-4.062-.182-4.092a.147.147 0 0 0-.11-.171.152.152 0 0 0-.182.095c-.009.025-.903 2.537-2.78 3.127-1.7.534-4.084-1.23-4.108-1.248a.154.154 0 0 0-.21.025.145.145 0 0 0 .022.205c.019.015 1.881 1.537 1.962 2.877-.229.703-2.329 1.522-3.127 1.78a.146.146 0 0 0-.096.184c.025.077.108.12.187.097.028-.008 2.755-.78 3.884.608.527.648-.278 2.636-.633 3.347a.146.146 0 0 0 .062.193.153.153 0 0 0 .202-.05c.517-.793 2.052-2.871 2.93-2.956 1.509-.146 3.08 1.962 3.095 1.984.048.065.14.08.208.035a.145.145 0 0 0 .042-.202c-.473-.706-1.606-2.7-1.186-3.443.4-.706 2.903-1.625 3.833-1.919a.147.147 0 0 0 .101-.172"/><path d="M48.728 67.104c.517.327.664 1 .328 1.504a1.134 1.134 0 0 1-1.543.32 1.07 1.07 0 0 1-.328-1.504 1.133 1.133 0 0 1 1.543-.32m-8.803 2.093a.79.79 0 0 1 .242 1.11.835.835 0 0 1-1.14.237.79.79 0 0 1-.242-1.11.836.836 0 0 1 1.14-.237m.946 3.728a.778.778 0 0 1 .239 1.094.824.824 0 0 1-1.123.233.778.778 0 0 1-.238-1.094.824.824 0 0 1 1.122-.233m4.424 1.483a.876.876 0 0 1 .27 1.231.927.927 0 0 1-1.263.261.875.875 0 0 1-.269-1.23.927.927 0 0 1 1.262-.262m3.49-2.894a.93.93 0 0 1 .286 1.306.985.985 0 0 1-1.34.278.93.93 0 0 1-.286-1.306.985.985 0 0 1 1.34-.278m-4.988-5.763c.517.327.664 1 .328 1.504a1.133 1.133 0 0 1-1.542.32 1.07 1.07 0 0 1-.329-1.504 1.132 1.132 0 0 1 1.543-.32"/></g></g></g></svg>