<svg xmlns="http://www.w3.org/2000/svg" width="87" height="80" viewBox="0 0 87 80" xmlns:xlink="http://www.w3.org/1999/xlink"><defs><path id="a" d="M0 79h87V0H0z"/></defs><g fill="none" fill-rule="evenodd"><path fill="#F5F5F5" d="M71.341 8.254L55.221.988c-2.36 12.356-12.428 12.486-12.428 12.486s-8.658-.13-11.02-12.486l-16.12 7.266L1 31.506l11.714 8.72 8.784-10.173v47.96h44v-47.96l7.318 10.173L86 31.506 71.341 8.254z"/><path stroke="#647C85" stroke-width="2" d="M71.341 8.254L55.221.988c-2.36 12.356-12.428 12.486-12.428 12.486s-8.658-.13-11.02-12.486l-16.12 7.266L1 31.506l11.714 8.72 8.784-10.173v47.96h44v-47.96l7.318 10.173L86 31.506 71.341 8.254z" stroke-linecap="round" stroke-linejoin="round"/><path fill="#FBD86A" d="M44 13.411a8.922 8.922 0 0 1-.723.063S34.417 13.344 32 .988l-5.044 2.1L23 13.825h21v-.414z"/><path stroke="#647C85" stroke-width="2" d="M44 13.411a8.922 8.922 0 0 1-.723.063S34.417 13.344 32 .988l-5.044 2.1L23 13.825h21v-.414z" stroke-linecap="round" stroke-linejoin="round"/><path fill="#FBD86A" d="M43 13.411c.443.055.723.063.723.063S52.583 13.344 55 .988l5.044 2.1L64 13.825H43v-.414z"/><path stroke="#647C85" stroke-width="2" d="M43 13.411c.443.055.723.063.723.063S52.583 13.344 55 .988l5.044 2.1L64 13.825H43v-.414z" stroke-linecap="round" stroke-linejoin="round"/><mask id="b" fill="#fff"><use xlink:href="#a"/></mask><path fill="#7DDEB1" mask="url(#b)" d="M22 70.938h22V66H22z"/><path fill="#F08481" mask="url(#b)" d="M44 70.938h21V66H44z"/><g transform="translate(32 22.712)" mask="url(#b)"><ellipse cx="11.5" cy="11.356" stroke="#647C85" stroke-width="2" stroke-dasharray="4" rx="11.5" ry="11.356"/><g fill="#647C85"><path d="M19.556 9.925a.186.186 0 0 0-.203-.144c-1.545.203-4.153.316-4.58-.24-.979-1.275-.23-5.145-.222-5.184a.185.185 0 0 0-.356-.096c-.01.032-1.103 3.213-3.397 3.96-2.076.677-4.99-1.558-5.018-1.58a.184.184 0 0 0-.257.031.188.188 0 0 0 .026.26c.023.02 2.299 1.947 2.397 3.645-.279.89-2.845 1.927-3.82 2.254a.187.187 0 0 0-.117.233c.03.098.132.152.228.123.034-.01 3.366-.987 4.746.77.644.821-.34 3.34-.774 4.24a.188.188 0 0 0 .076.244.184.184 0 0 0 .246-.063c.632-1.005 2.508-3.637 3.58-3.744 1.844-.185 3.763 2.485 3.782 2.512a.183.183 0 0 0 .255.045.188.188 0 0 0 .05-.255c-.577-.895-1.962-3.422-1.448-4.362.49-.895 3.547-2.058 4.683-2.43a.187.187 0 0 0 .123-.219"/><path d="M17.224 6.731c.631.415.811 1.267.4 1.905a1.355 1.355 0 0 1-1.885.405 1.385 1.385 0 0 1-.4-1.904 1.354 1.354 0 0 1 1.885-.406M6.468 9.382c.467.305.6.936.296 1.407a.999.999 0 0 1-1.393.3 1.022 1.022 0 0 1-.296-1.408 1 1 0 0 1 1.393-.299m1.156 4.723c.46.3.59.92.292 1.385a.985.985 0 0 1-1.372.294 1.007 1.007 0 0 1-.291-1.384.985.985 0 0 1 1.371-.295m5.406 1.878c.517.34.664 1.037.328 1.559a1.108 1.108 0 0 1-1.542.331 1.133 1.133 0 0 1-.329-1.558 1.108 1.108 0 0 1 1.543-.332m4.264-3.666c.55.36.705 1.1.349 1.654a1.177 1.177 0 0 1-1.638.352 1.203 1.203 0 0 1-.35-1.654 1.178 1.178 0 0 1 1.64-.352m-6.096-7.3c.632.414.811 1.267.401 1.905-.41.638-1.254.819-1.885.405a1.385 1.385 0 0 1-.401-1.905 1.354 1.354 0 0 1 1.885-.405"/></g></g><path stroke="#647C85" stroke-width="2" stroke-linecap="round" stroke-linejoin="round" mask="url(#b)" d="M22 71.1h43v-4.938H22z"/></g></svg>