<svg xmlns="http://www.w3.org/2000/svg" width="80" height="80" viewBox="0 0 80 80"><g fill="none" fill-rule="evenodd"><path fill="#F5F5F5" d="M1 79h78V1H1z"/><path stroke="#647C85" stroke-width="2" d="M1 79h78V1H1z"/><path fill="#78878C" d="M1 17h78V1H1z"/><path stroke="#647C85" stroke-width="2" d="M1 17h78V1H1z"/><path fill="#F08481" d="M13 9a4 4 0 1 1-8 0 4 4 0 0 1 8 0"/><path stroke="#647C85" stroke-width="2" d="M13 9a4 4 0 1 1-8 0 4 4 0 0 1 8 0z"/><path fill="#EBB200" d="M25 9a4 4 0 1 1-8 0 4 4 0 0 1 8 0"/><path stroke="#647C85" stroke-width="2" d="M25 9a4 4 0 1 1-8 0 4 4 0 0 1 8 0z"/><path fill="#7DDEB1" d="M37 9a4 4 0 1 1-8 0 4 4 0 0 1 8 0"/><path stroke="#647C85" stroke-width="2" d="M37 9a4 4 0 1 1-8 0 4 4 0 0 1 8 0z"/><path fill="#FFF" d="M9 71h62v-7H9z"/><path stroke="#647C85" stroke-width="2" d="M9 71h62v-7H9z"/><path fill="#FFF" d="M33 40h38V25H33z"/><path stroke="#647C85" stroke-width="2" d="M33 39h38V24H33z"/><path stroke="#647C85" stroke-width="2" d="M9 47h28M9 52h62M9 57h62" stroke-linecap="round"/><path fill="#78878C" d="M68.5 27a1.5 1.5 0 1 1 0-3 1.5 1.5 0 0 1 0 3m0 8a1.5 1.5 0 1 1 0-3 1.5 1.5 0 0 1 0 3m-4-4a1.5 1.5 0 1 1 0-3 1.5 1.5 0 0 1 0 3m-4-4a1.5 1.5 0 1 1 0-3 1.5 1.5 0 0 1 0 3m0 8a1.5 1.5 0 1 1 0-3 1.5 1.5 0 0 1 0 3m4 4a1.5 1.5 0 1 1 0-3 1.5 1.5 0 0 1 0 3m-8-8a1.5 1.5 0 1 1 0-3 1.5 1.5 0 0 1 0 3m-4-4a1.5 1.5 0 1 1 0-3 1.5 1.5 0 0 1 0 3m0 8a1.5 1.5 0 1 1 0-3 1.5 1.5 0 0 1 0 3m4 4a1.5 1.5 0 1 1 0-3 1.5 1.5 0 0 1 0 3m-8-8a1.5 1.5 0 1 1 0-3 1.5 1.5 0 0 1 0 3m-4-4a1.5 1.5 0 1 1 0-3 1.5 1.5 0 0 1 0 3m0 8a1.5 1.5 0 1 1 0-3 1.5 1.5 0 0 1 0 3"/><g transform="translate(9 22)"><circle cx="9.5" cy="9.5" r="9.5" stroke="#647C85" stroke-width="2" stroke-dasharray="3"/><g fill="#647C85"><path d="M16.612 8.135a.162.162 0 0 0-.179-.125c-1.35.176-3.633.274-4.006-.207-.857-1.106-.201-4.46-.195-4.494a.162.162 0 0 0-.311-.083c-.01.028-.966 2.785-2.973 3.432-1.816.587-4.365-1.35-4.39-1.37a.162.162 0 0 0-.203.253c.02.017 2.012 1.688 2.098 3.16-.244.77-2.49 1.67-3.342 1.953a.162.162 0 0 0 .097.308c.03-.009 2.945-.856 4.152.668.564.711-.298 2.893-.677 3.674a.162.162 0 0 0 .282.157c.553-.87 2.194-3.152 3.133-3.245 1.613-.16 3.292 2.154 3.309 2.177a.161.161 0 0 0 .266-.182c-.505-.775-1.716-2.965-1.267-3.78.428-.776 3.103-1.784 4.098-2.107a.162.162 0 0 0 .108-.189"/><path d="M14.57 5.367a1.194 1.194 0 1 1-1.3 2.002 1.194 1.194 0 0 1 1.3-2.002M5.16 7.665a.88.88 0 0 1 .258 1.219.881.881 0 1 1-.259-1.22m1.012 4.093a.868.868 0 1 1-.945 1.456.868.868 0 0 1 .945-1.456m4.73 1.628a.976.976 0 1 1-1.063 1.638.976.976 0 0 1 1.063-1.638m3.731-3.177a1.036 1.036 0 1 1-1.128 1.739 1.036 1.036 0 0 1 1.128-1.739M9.3 3.882a1.193 1.193 0 1 1-1.297 2.001 1.193 1.193 0 0 1 1.297-2.001"/></g></g><path fill="#78878C" d="M48.5 39a1.5 1.5 0 1 1 0-3 1.5 1.5 0 0 1 0 3m-8-8a1.5 1.5 0 1 1 0-3 1.5 1.5 0 0 1 0 3m-4-4a1.5 1.5 0 1 1 0-3 1.5 1.5 0 0 1 0 3m0 8a1.5 1.5 0 1 1 0-3 1.5 1.5 0 0 1 0 3m4 4a1.5 1.5 0 1 1 0-3 1.5 1.5 0 0 1 0 3"/></g></svg>