<svg xmlns="http://www.w3.org/2000/svg" width="78" height="78" viewBox="0 0 78 78"><g fill="none" fill-rule="evenodd" transform="rotate(-30 39 39)"><ellipse cx="39" cy="39" fill="#647C85" rx="39" ry="39"/><ellipse cx="39" cy="39" fill="#647C85" stroke="#FFF" rx="35" ry="35"/><path fill="#FFF" d="M17.405 30.444V37h-1.341v-3.771c0-.087.002-.181.007-.283a4.47 4.47 0 0 1 .024-.311l-1.741 3.37a.572.572 0 0 1-.531.32h-.207a.572.572 0 0 1-.531-.32l-1.742-3.379c.01.108.017.214.023.317.006.104.009.199.009.286V37h-1.341v-6.556h1.161c.066 0 .124.001.173.004.05.003.094.012.133.027a.302.302 0 0 1 .106.07.55.55 0 0 1 .092.132l1.688 3.326c.06.114.117.232.173.355.055.124.108.25.16.379.05-.133.104-.261.16-.388.055-.126.114-.245.177-.36l1.683-3.311a.55.55 0 0 1 .092-.133.302.302 0 0 1 .106-.07.443.443 0 0 1 .133-.027c.05-.003.107-.005.173-.005h1.161zm7.704 3.275c0 .475-.082.915-.245 1.323a3.189 3.189 0 0 1-.691 1.065 3.168 3.168 0 0 1-1.073.709 3.65 3.65 0 0 1-1.393.256c-.51 0-.975-.085-1.395-.257a3.187 3.187 0 0 1-1.078-.708 3.171 3.171 0 0 1-.693-1.065 3.524 3.524 0 0 1-.245-1.323c0-.474.082-.914.245-1.322.164-.409.395-.762.693-1.063.299-.3.658-.535 1.078-.706.42-.171.885-.256 1.395-.256s.974.086 1.393.258c.418.173.776.409 1.073.709.297.3.527.654.69 1.062.164.408.246.847.246 1.318zm-1.557 0c0-.324-.042-.615-.126-.875a1.854 1.854 0 0 0-.362-.659 1.562 1.562 0 0 0-.579-.414 1.99 1.99 0 0 0-.778-.144 2.02 2.02 0 0 0-.785.144c-.23.096-.423.234-.58.414-.158.18-.279.4-.363.66-.084.259-.126.55-.126.874 0 .328.042.62.126.88.084.26.205.48.362.66.158.18.351.317.58.411.23.095.492.142.786.142.291 0 .55-.047.778-.142a1.54 1.54 0 0 0 .579-.412c.157-.18.278-.4.362-.659a2.85 2.85 0 0 0 .126-.88zm8.177-3.276V37h-.793a.689.689 0 0 1-.294-.056.721.721 0 0 1-.236-.196l-3.092-3.91a5.577 5.577 0 0 1 .032.648V37h-1.341v-6.556h.8c.067 0 .122.003.167.009a.405.405 0 0 1 .225.104c.033.029.07.07.113.12l3.118 3.938a5.425 5.425 0 0 1-.04-.702v-3.47h1.34zm2.799 1.17v1.53h2.06v1.126h-2.06v1.561h2.69V37h-4.22v-6.556h4.22v1.17h-2.69zm6.767 2.894V37h-1.52v-2.493l-2.377-4.063h1.341c.133 0 .237.03.313.092.077.061.14.14.191.236l.927 1.908c.079.15.149.29.212.42.063.131.118.26.166.386.046-.13.097-.26.156-.39.058-.13.126-.269.204-.416l.919-1.908a.866.866 0 0 1 .076-.117.52.52 0 0 1 .419-.212h1.35l-2.377 4.064zm7.178 1.346c.201 0 .365-.026.493-.077a.779.779 0 0 0 .299-.198.664.664 0 0 0 .148-.275c.028-.102.041-.205.041-.31 0-.12-.016-.228-.047-.324a.536.536 0 0 0-.162-.243.792.792 0 0 0-.304-.153 1.77 1.77 0 0 0-.477-.054h-1.062v1.633h1.071zm-1.071-4.271v1.62h.792c.168 0 .32-.012.454-.036a.945.945 0 0 0 .345-.126.578.578 0 0 0 .216-.248.928.928 0 0 0 .074-.395c0-.157-.02-.286-.059-.39a.558.558 0 0 0-.18-.25.756.756 0 0 0-.308-.135 2.116 2.116 0 0 0-.443-.04h-.891zm.891-1.139c.453 0 .838.042 1.157.127.318.084.577.202.778.355.201.153.347.339.439.558.091.219.137.463.137.734 0 .147-.021.288-.063.425a1.224 1.224 0 0 1-.198.382c-.09.119-.205.227-.346.326-.142.1-.311.185-.509.257.432.105.751.274.959.508.207.235.31.537.31.91 0 .279-.054.538-.162.778-.108.24-.266.45-.475.628a2.25 2.25 0 0 1-.772.418c-.306.1-.655.151-1.048.151h-2.619v-6.556h2.412zm6.966 4.05l-.608-1.795a7.6 7.6 0 0 1-.144-.403 12.318 12.318 0 0 1-.152-.502 7.085 7.085 0 0 1-.288.914l-.603 1.786h1.795zM57.675 37h-1.178a.515.515 0 0 1-.32-.092.586.586 0 0 1-.184-.236l-.388-1.143h-2.492l-.388 1.142a.547.547 0 0 1-.177.228.496.496 0 0 1-.318.101h-1.188l2.538-6.556h1.558L57.675 37zm4.721-1.697a.294.294 0 0 1 .212.09l.603.635a2.503 2.503 0 0 1-.993.78c-.397.176-.867.264-1.41.264a3.36 3.36 0 0 1-1.34-.254 2.897 2.897 0 0 1-1.003-.702 3.091 3.091 0 0 1-.632-1.062 3.921 3.921 0 0 1-.22-1.335c0-.489.079-.938.238-1.347a3.02 3.02 0 0 1 1.706-1.753 3.464 3.464 0 0 1 1.327-.247 3.398 3.398 0 0 1 1.305.245 2.785 2.785 0 0 1 .945.627l-.513.689a.653.653 0 0 1-.117.115.304.304 0 0 1-.189.051.338.338 0 0 1-.153-.035 1.691 1.691 0 0 1-.153-.088 26.99 26.99 0 0 0-.178-.113 1.364 1.364 0 0 0-.23-.112 1.897 1.897 0 0 0-.31-.088 2.119 2.119 0 0 0-.416-.036c-.252 0-.482.046-.69.14a1.506 1.506 0 0 0-.54.407 1.883 1.883 0 0 0-.352.657c-.082.26-.123.555-.123.888 0 .337.045.635.137.896.091.261.216.48.373.66.158.178.341.313.551.407.21.093.435.139.675.139.139 0 .264-.007.379-.02.114-.014.22-.036.319-.068.099-.031.192-.073.279-.126a1.76 1.76 0 0 0 .265-.2.532.532 0 0 1 .117-.074.307.307 0 0 1 .131-.03zm3.001-2.204h.243c.226 0 .387-.071.486-.212l1.477-2.142a.726.726 0 0 1 .28-.236.948.948 0 0 1 .377-.066h1.322l-1.944 2.651a1.325 1.325 0 0 1-.445.396c.114.042.217.1.31.175.094.076.18.173.261.293L69.745 37h-1.359c-.087 0-.16-.006-.222-.018a.57.57 0 0 1-.16-.054.46.46 0 0 1-.117-.088.87.87 0 0 1-.094-.119l-1.486-2.281a.447.447 0 0 0-.204-.178.888.888 0 0 0-.336-.052h-.369V37h-1.52v-6.556h1.52v2.655zm-49.4 11.504h2.33v2.767a3.446 3.446 0 0 1-1.073.536c-.38.11-.776.166-1.19.166a4.09 4.09 0 0 1-1.474-.254 3.395 3.395 0 0 1-1.136-.702 3.08 3.08 0 0 1-.729-1.062 3.428 3.428 0 0 1-.256-1.335c0-.489.08-.938.242-1.347.163-.41.394-.763.696-1.06a3.154 3.154 0 0 1 1.093-.693 3.953 3.953 0 0 1 1.434-.248c.273 0 .529.023.769.068.24.045.461.106.664.184a3.055 3.055 0 0 1 1.005.63l-.44.671a.423.423 0 0 1-.268.194c-.11.024-.227-.003-.354-.082a4.727 4.727 0 0 0-.34-.186 2.073 2.073 0 0 0-.676-.2 3.444 3.444 0 0 0-.415-.023c-.285 0-.541.05-.769.15a1.65 1.65 0 0 0-.583.426c-.16.183-.284.403-.371.66-.087.256-.13.541-.13.856 0 .349.047.657.143.928.097.27.232.497.408.684.175.186.385.327.63.425.244.097.515.146.812.146.183 0 .349-.018.497-.054a2.78 2.78 0 0 0 .435-.144v-.995h-.649a.315.315 0 0 1-.224-.076.255.255 0 0 1-.082-.194v-.837zm6.088 2.195c.204 0 .386-.033.547-.1.16-.068.296-.165.407-.291.111-.126.196-.28.254-.461.059-.182.088-.388.088-.619v-3.883h1.521v3.883c0 .402-.065.771-.196 1.107-.13.336-.317.625-.56.869a2.528 2.528 0 0 1-.887.567c-.348.135-.739.202-1.174.202a3.24 3.24 0 0 1-1.179-.203 2.528 2.528 0 0 1-.886-.566 2.457 2.457 0 0 1-.558-.869 3.064 3.064 0 0 1-.194-1.107v-3.883h1.521v3.878c0 .232.03.438.088.62.058.18.143.335.254.463.111.127.247.225.407.292.16.068.343.101.547.101zm7.299-1.305l-.608-1.795a7.6 7.6 0 0 1-.143-.403 12.318 12.318 0 0 1-.153-.502 7.085 7.085 0 0 1-.288.914l-.604 1.786h1.796zM31.8 48h-1.178a.515.515 0 0 1-.32-.092.586.586 0 0 1-.184-.236l-.387-1.143h-2.494l-.386 1.142a.547.547 0 0 1-.178.228.496.496 0 0 1-.317.101h-1.189l2.538-6.556h1.558L31.8 48zm2.651-3.474c.207 0 .383-.026.529-.079a.955.955 0 0 0 .358-.218.831.831 0 0 0 .202-.326c.042-.125.063-.259.063-.403 0-.288-.094-.513-.281-.675-.188-.162-.478-.243-.871-.243h-.612v1.944h.612zM37.682 48h-1.377c-.255 0-.438-.096-.549-.288l-1.089-1.904a.527.527 0 0 0-.171-.177.532.532 0 0 0-.27-.056h-.387V48h-1.521v-6.556h2.133c.474 0 .878.048 1.213.146.334.097.607.233.819.407.211.174.365.38.461.617.096.237.144.494.144.774 0 .213-.028.413-.086.602a1.86 1.86 0 0 1-.663.954c-.164.127-.352.23-.565.311a1.376 1.376 0 0 1 .513.463L37.682 48zm4.018-2.507l-.607-1.795a7.6 7.6 0 0 1-.144-.403 12.318 12.318 0 0 1-.153-.502 7.085 7.085 0 0 1-.288.914l-.603 1.786H41.7zM44.117 48h-1.179a.515.515 0 0 1-.32-.092.586.586 0 0 1-.184-.236l-.387-1.143h-2.493l-.387 1.142a.547.547 0 0 1-.178.228.496.496 0 0 1-.317.101h-1.188l2.538-6.556h1.557L44.117 48zm6.242-6.556V48h-.793a.689.689 0 0 1-.294-.056.721.721 0 0 1-.236-.196l-3.092-3.91a5.577 5.577 0 0 1 .031.648V48h-1.34v-6.556h.8c.067 0 .122.002.167.008a.405.405 0 0 1 .225.103c.033.031.07.071.113.123l3.118 3.937a5.425 5.425 0 0 1-.04-.702v-3.47h1.34zm5.98 1.206h-1.845V48h-1.521v-5.35h-1.845v-1.206h5.211v1.206zm2.3-.036v1.53h2.06v1.125h-2.06v1.561h2.69V48h-4.22v-6.556h4.22v1.17h-2.69zm5.156 0v1.53h2.061v1.125h-2.06v1.561h2.69V48h-4.22v-6.556h4.22v1.17h-2.69zM39 18.5l-2.939 1.545.561-3.272-2.377-2.318 3.286-.478L39 11l1.469 2.977 3.286.478-2.377 2.318.561 3.272zM27.949 20.842l-2.29 1.203.438-2.549-1.852-1.805 2.559-.372L27.949 15l1.144 2.319 2.559.372-1.852 1.805.438 2.549zM49.949 20.842l-2.29 1.203.438-2.549-1.852-1.805 2.559-.372L49.949 15l1.144 2.319 2.559.372-1.852 1.805.438 2.549zM39 65.5l-2.939 1.545.561-3.272-2.377-2.318 3.286-.478L39 58l1.469 2.977 3.286.478-2.377 2.318.561 3.272zM27.949 60.842l-2.29 1.203.438-2.549-1.852-1.805 2.559-.372L27.949 55l1.144 2.319 2.559.372-1.852 1.805.438 2.549zM49.949 60.842l-2.29 1.203.438-2.549-1.852-1.805 2.559-.372L49.949 55l1.144 2.319 2.559.372-1.852 1.805.438 2.549z"/></g></svg>