<svg xmlns="http://www.w3.org/2000/svg" width="120" height="120" viewBox="0 0 120 120"><g fill="none" fill-rule="evenodd" transform="rotate(-30 60 60)"><ellipse cx="60" cy="60" fill="#647C85" rx="60" ry="60"/><ellipse cx="60" cy="60" fill="#647C85" stroke="#FFF" rx="53.846" ry="53.846"/><text fill="#FFF" font-family="Lato-Black, Lato" font-size="13.846" font-weight="700"><tspan x="14.461" y="57.077">MONEY BACK</tspan> <tspan x="18.788" y="74.077">GUARANTEE</tspan></text><path fill="#FFF" d="M60 28.462l-4.521 2.377.863-5.035-3.658-3.566 5.055-.734L60 16.923l2.261 4.581 5.055.734-3.658 3.566.863 5.035zM42.998 32.064l-3.522 1.852.673-3.922-2.849-2.777 3.937-.572 1.761-3.568 1.761 3.568 3.937.572-2.849 2.777.672 3.922zM76.844 32.064l-3.522 1.852.673-3.922-2.849-2.777 3.937-.572 1.761-3.568 1.761 3.568 3.937.572-2.849 2.777.673 3.922zM60 100.769l-4.521 2.377.863-5.034-3.658-3.566 5.055-.735L60 89.231l2.261 4.58 5.055.735-3.658 3.566.863 5.034zM42.998 93.603l-3.522 1.851.673-3.921-2.849-2.778 3.937-.572 1.761-3.568 1.761 3.568 3.937.572-2.849 2.778.672 3.921zM76.844 93.603l-3.522 1.851.673-3.921-2.849-2.778 3.937-.572 1.761-3.568 1.761 3.568 3.937.572-2.849 2.778.673 3.921z"/></g></svg>